<svg width="26" height="35" viewBox="0 0 26 35" fill="none" xmlns="http://www.w3.org/2000/svg">
<path d="M21.6848 12.4707C21.6881 12.4352 21.6881 12.3996 21.6848 12.3641V5.80163C21.6848 2.60217 18.6109 0 14.837 0H10.6522C6.87827 0 3.80435 2.60217 3.80435 5.80163V21.6848H0.570657C0.41931 21.6848 0.274163 21.7449 0.167145 21.8519C0.0601266 21.9589 4.5483e-06 22.1041 4.5483e-06 22.2554V25.3217C-0.000352574 25.4112 0.0203254 25.4995 0.0603697 25.5795C0.100414 25.6595 0.158703 25.7289 0.230532 25.7822C0.302362 25.8356 0.38572 25.8712 0.473879 25.8864C0.562038 25.9016 0.652529 25.8958 0.738048 25.8696H8.17935C8.3307 25.8696 8.47585 25.8094 8.58286 25.7024C8.68988 25.5954 8.75 25.4503 8.75 25.2989V22.2554C8.75 22.1041 8.68988 21.9589 8.58286 21.8519C8.47585 21.7449 8.3307 21.6848 8.17935 21.6848H4.94566V5.80163C4.94566 3.22989 7.50598 1.1413 10.6522 1.1413H14.837C17.9832 1.1413 20.5435 3.22989 20.5435 5.80163V11.7516C18.609 10.738 16.4499 10.2289 14.2663 10.2717C14.115 10.2717 13.9698 10.3319 13.8628 10.4389C13.7558 10.5459 13.6957 10.691 13.6957 10.8424V26.0598C13.6957 26.2111 13.7558 26.3563 13.8628 26.4633C13.9698 26.5703 14.115 26.6304 14.2663 26.6304C14.4177 26.6304 14.5628 26.5703 14.6698 26.4633C14.7768 26.3563 14.837 26.2111 14.837 26.0598V11.413C20.6348 11.6261 24.3478 15.088 24.3478 20.3571V31.9565H20.3533C20.2019 31.9565 20.0568 32.0166 19.9498 32.1237C19.8427 32.2307 19.7826 32.3758 19.7826 32.5272C19.7826 32.6785 19.8427 32.8237 19.9498 32.9307C20.0568 33.0377 20.2019 33.0978 20.3533 33.0978H24.9185C25.0698 33.0978 25.215 33.0377 25.322 32.9307C25.429 32.8237 25.4891 32.6785 25.4891 32.5272V20.3533C25.4891 16.9978 24.0815 14.2435 21.6848 12.4707ZM7.6087 24.7283H1.14131V22.8261H7.6087V24.7283Z" fill="#007198"/>
<path d="M14.4566 28.1522C13.7794 28.1522 13.1175 28.353 12.5544 28.7292C11.9913 29.1054 11.5525 29.6402 11.2933 30.2658C11.0342 30.8915 10.9664 31.5799 11.0985 32.2441C11.2306 32.9082 11.5567 33.5183 12.0356 33.9972C12.5144 34.476 13.1245 34.8021 13.7887 34.9342C14.4528 35.0663 15.1413 34.9985 15.7669 34.7394C16.3925 34.4802 16.9273 34.0414 17.3035 33.4783C17.6797 32.9153 17.8805 32.2533 17.8805 31.5761C17.8805 30.668 17.5198 29.7971 16.8777 29.155C16.2356 28.5129 15.3647 28.1522 14.4566 28.1522ZM14.4566 33.8587C14.0052 33.8587 13.5639 33.7248 13.1885 33.474C12.8131 33.2232 12.5205 32.8667 12.3478 32.4496C12.175 32.0325 12.1298 31.5736 12.2179 31.1308C12.306 30.688 12.5234 30.2813 12.8426 29.962C13.1618 29.6428 13.5685 29.4254 14.0113 29.3373C14.4541 29.2493 14.9131 29.2945 15.3301 29.4672C15.7472 29.64 16.1037 29.9326 16.3545 30.3079C16.6054 30.6833 16.7392 31.1246 16.7392 31.5761C16.7392 32.1815 16.4988 32.7621 16.0707 33.1901C15.6426 33.6182 15.062 33.8587 14.4566 33.8587Z" fill="#007198"/>
<path d="M0.951023 27.3913C0.799677 27.3913 0.65453 27.4514 0.547512 27.5584C0.440493 27.6655 0.380371 27.8106 0.380371 27.9619V31.7663C0.380371 31.9176 0.440493 32.0628 0.547512 32.1698C0.65453 32.2768 0.799677 32.3369 0.951023 32.3369C1.10237 32.3369 1.24752 32.2768 1.35453 32.1698C1.46155 32.0628 1.52168 31.9176 1.52168 31.7663V27.9619C1.52168 27.8106 1.46155 27.6655 1.35453 27.5584C1.24752 27.4514 1.10237 27.3913 0.951023 27.3913Z" fill="#007198"/>
<path d="M4.37485 27.3913C4.22351 27.3913 4.07836 27.4514 3.97134 27.5584C3.86432 27.6655 3.8042 27.8106 3.8042 27.9619V31.7663C3.8042 31.9176 3.86432 32.0628 3.97134 32.1698C4.07836 32.2768 4.22351 32.3369 4.37485 32.3369C4.5262 32.3369 4.67135 32.2768 4.77836 32.1698C4.88538 32.0628 4.9455 31.9176 4.9455 31.7663V27.9619C4.9455 27.8106 4.88538 27.6655 4.77836 27.5584C4.67135 27.4514 4.5262 27.3913 4.37485 27.3913Z" fill="#007198"/>
<path d="M7.79868 27.3913C7.64733 27.3913 7.50219 27.4514 7.39517 27.5584C7.28815 27.6655 7.22803 27.8106 7.22803 27.9619V31.7663C7.22803 31.9176 7.28815 32.0628 7.39517 32.1698C7.50219 32.2768 7.64733 32.3369 7.79868 32.3369C7.95003 32.3369 8.09517 32.2768 8.20219 32.1698C8.30921 32.0628 8.36933 31.9176 8.36933 31.7663V27.9619C8.36933 27.8106 8.30921 27.6655 8.20219 27.5584C8.09517 27.4514 7.95003 27.3913 7.79868 27.3913Z" fill="#007198"/>
</svg>
