<svg width="32" height="19" viewBox="0 0 32 19" fill="none" xmlns="http://www.w3.org/2000/svg">
<path d="M31.83 17.159C31.791 17.0724 31.755 16.9999 31.7214 16.9421C31.1658 15.9017 30.1053 14.6242 28.5394 13.1099L28.5058 13.0755L28.4892 13.0577L28.4727 13.041H28.4561C27.7452 12.3356 27.2953 11.8617 27.1068 11.6185C26.7626 11.1568 26.6847 10.6886 26.8736 10.2147C27.0075 9.85646 27.5071 9.09934 28.3733 7.94289C28.8286 7.33072 29.1894 6.83966 29.4562 6.4687C31.3776 3.81018 32.2103 2.11149 31.9551 1.3711L31.8548 1.19778C31.7881 1.09339 31.6157 0.998117 31.3382 0.91146C31.0606 0.824802 30.7052 0.811119 30.2723 0.868384L25.4742 0.903858C25.3632 0.892202 25.2522 0.895243 25.1407 0.911966C25.0296 0.929703 24.9576 0.946934 24.924 0.964164C24.8904 0.981901 24.8631 0.99609 24.8407 1.00724L24.774 1.05944C24.7185 1.0939 24.6576 1.15471 24.5909 1.24187C24.5242 1.32853 24.4682 1.42938 24.4244 1.54543C23.9024 2.94411 23.3084 4.24449 22.6418 5.44705C22.2308 6.16363 21.853 6.78543 21.5092 7.31095C21.165 7.83749 20.8762 8.22466 20.643 8.47247C20.4097 8.72079 20.1984 8.92096 20.01 9.07046C19.8211 9.22148 19.6764 9.28432 19.5771 9.26151C19.4768 9.23871 19.3823 9.21539 19.2937 9.19158C19.1384 9.08769 19.0128 8.9463 18.9188 8.7669C18.8243 8.58801 18.7606 8.3625 18.727 8.09087C18.6938 7.81924 18.6739 7.58512 18.669 7.38849C18.6632 7.19186 18.6661 6.91466 18.6773 6.55637C18.6885 6.19809 18.6938 5.95585 18.6938 5.82814C18.6938 5.38928 18.7021 4.91241 18.7192 4.39753C18.7357 3.88316 18.7498 3.47572 18.7606 3.1752C18.7717 2.87519 18.7771 2.55694 18.7771 2.22146C18.7771 1.88699 18.7576 1.62347 18.7187 1.43242C18.6797 1.24187 18.6213 1.05741 18.5439 0.877506C18.466 0.698616 18.352 0.559761 18.2021 0.461954C18.0521 0.363641 17.8661 0.285598 17.644 0.227827C17.0549 0.0889716 16.3055 0.0144764 15.395 0.00231393C13.329 -0.019984 12.0016 0.118871 11.4129 0.418879C11.1797 0.546585 10.9684 0.719394 10.7799 0.939332C10.5798 1.19373 10.552 1.33309 10.6967 1.35488C11.3633 1.45928 11.8351 1.7081 12.1126 2.10085L12.2129 2.30862C12.2904 2.45964 12.3683 2.72519 12.4462 3.10628C12.5241 3.48788 12.5737 3.90951 12.5961 4.37219C12.6516 5.21597 12.6516 5.93811 12.5961 6.53965C12.5406 7.14118 12.488 7.60893 12.4379 7.9434C12.3877 8.27888 12.3128 8.55001 12.2129 8.75829C12.1126 8.96708 12.0464 9.09428 12.0128 9.14039C11.9792 9.18651 11.9519 9.21539 11.9295 9.22705C11.7849 9.28432 11.6354 9.31371 11.4796 9.31371C11.3238 9.31371 11.1354 9.23263 10.9129 9.07046C10.6908 8.90931 10.46 8.68633 10.2214 8.40304C9.98235 8.12027 9.71357 7.72397 9.41314 7.21517C9.1132 6.70688 8.80206 6.10585 8.4802 5.41209L8.21386 4.90886C8.04733 4.58554 7.81945 4.11425 7.53071 3.49599C7.24196 2.87773 6.98633 2.27974 6.7643 1.70101C6.67519 1.45877 6.54226 1.2738 6.36453 1.14609L6.28127 1.0939C6.22576 1.04778 6.13666 0.998624 6.01444 0.946933C5.89174 0.894736 5.76465 0.857235 5.63123 0.833924L1.06636 0.868384C0.599886 0.868384 0.283388 0.97886 0.116861 1.19829L0.0501528 1.30218C0.0165553 1.36046 0 1.4532 0 1.57989C0 1.7076 0.0335975 1.86317 0.100306 2.04764C0.766899 3.67792 1.49144 5.24992 2.2744 6.76364C3.05786 8.27838 3.7376 9.49817 4.31557 10.4225C4.89306 11.3479 5.48175 12.22 6.08163 13.041C6.68152 13.862 7.07836 14.3875 7.27264 14.6186C7.46692 14.8502 7.61933 15.0235 7.73083 15.139L8.14715 15.5556C8.4135 15.8328 8.80547 16.1652 9.3216 16.5524C9.83822 16.9401 10.4099 17.3212 11.0375 17.6962C11.6647 18.0722 12.3955 18.3778 13.2282 18.6155C14.0613 18.8526 14.872 18.9479 15.6603 18.9013H17.5764C17.9654 18.8668 18.2595 18.7401 18.4591 18.5197L18.5259 18.433C18.5702 18.3641 18.612 18.2567 18.651 18.1128C18.6895 17.9683 18.7094 17.8092 18.7094 17.6359C18.6977 17.1387 18.7343 16.6903 18.8175 16.2919C18.9008 15.8931 18.9952 15.5926 19.1009 15.3899C19.2066 15.1882 19.3254 15.0174 19.4593 14.8786C19.5927 14.7397 19.6867 14.6566 19.7427 14.6272C19.7982 14.5988 19.843 14.5785 19.8761 14.5664C20.1424 14.4741 20.456 14.5638 20.8173 14.835C21.1781 15.1071 21.517 15.4416 21.8335 15.8409C22.15 16.2397 22.5303 16.6872 22.9748 17.1849C23.4189 17.682 23.8075 18.0514 24.141 18.2942L24.4746 18.503C24.6966 18.6413 24.9853 18.7685 25.3408 18.8846C25.6962 18.9996 26.0074 19.029 26.2737 18.9712L30.5387 18.9013C30.9608 18.9013 31.2885 18.8293 31.5218 18.6844C31.755 18.541 31.8938 18.3808 31.9381 18.2075C31.9824 18.0342 31.9853 17.8386 31.9464 17.6181C31.9074 17.3987 31.8684 17.2457 31.83 17.159Z" fill="#111111"/>
</svg>
