<svg width="29" height="35" viewBox="0 0 29 35" fill="none" xmlns="http://www.w3.org/2000/svg">
<path d="M28.8004 4.025C29.0662 3.7625 29.0662 3.36875 28.8004 3.10625L28.7561 3.0625L24.9012 0.13125C24.7683 0.0437501 24.6353 0 24.5024 0H9.96914C9.61467 0 9.30451 0.30625 9.30451 0.65625V5.46875C9.30451 5.81875 9.61467 6.125 9.96914 6.125H14.0012L10.7224 10.8063C10.5008 11.1125 10.5895 11.5062 10.8996 11.725C11.2098 11.9437 11.6086 11.8563 11.8301 11.55L15.5964 6.16875L18.6094 7.56875V10.5H17.1472C16.9256 10.5 16.7041 10.5875 16.6155 10.8063L7.66508 23.9312C7.57646 24.0187 7.53216 24.15 7.57646 24.2812V34.3438C7.57646 34.6937 7.88663 35 8.2411 35H26.4077C26.7622 35 27.0723 34.6937 27.0723 34.3438V11.1562C27.0723 10.8062 26.7622 10.5 26.4077 10.5H24.8126V8.00625L28.8004 4.025ZM8.86142 33.6875V25.375H25.6988V33.6875H8.86142ZM25.6988 24.0625H9.17158L17.5016 11.8125H25.6988V24.0625ZM19.9386 10.5V7.13125C19.9386 6.86875 19.8057 6.65 19.5398 6.5625L15.9951 4.9C15.9065 4.85625 15.8179 4.85625 15.7293 4.85625H10.6338V1.3125H24.2366L27.2939 3.63125L23.6606 7.2625C23.5276 7.39375 23.4833 7.56875 23.4833 7.74375V10.5H19.9386Z" fill="#007198"/>
<path d="M5.09576 5.25002C5.70753 5.25002 6.20348 4.76033 6.20348 4.15627C6.20348 3.5522 5.70753 3.06252 5.09576 3.06252C4.48398 3.06252 3.98804 3.5522 3.98804 4.15627C3.98804 4.76033 4.48398 5.25002 5.09576 5.25002Z" fill="#007198"/>
<path d="M1.10772 8.3125C1.7195 8.3125 2.21544 7.82281 2.21544 7.21875C2.21544 6.61469 1.7195 6.125 1.10772 6.125C0.495943 6.125 0 6.61469 0 7.21875C0 7.82281 0.495943 8.3125 1.10772 8.3125Z" fill="#007198"/>
<path d="M1.10772 2.625C1.7195 2.625 2.21544 2.13531 2.21544 1.53125C2.21544 0.927189 1.7195 0.4375 1.10772 0.4375C0.495943 0.4375 0 0.927189 0 1.53125C0 2.13531 0.495943 2.625 1.10772 2.625Z" fill="#007198"/>
</svg>
