<svg width="34" height="35" viewBox="0 0 34 35" fill="none" xmlns="http://www.w3.org/2000/svg">
<path d="M23.2843 33.7647H5.35633V14.4118L15.9071 5.35299L26.3754 14.173C26.3754 14.173 26.3754 14.1936 26.3754 14.2059V17.9118C26.3754 18.0756 26.4405 18.2327 26.5565 18.3485C26.6724 18.4644 26.8296 18.5294 26.9936 18.5294C27.1576 18.5294 27.3148 18.4644 27.4307 18.3485C27.5467 18.2327 27.6118 18.0756 27.6118 17.9118V15.2106L31.1273 18.1753C31.2525 18.2812 31.4146 18.3332 31.5781 18.3197C31.7416 18.3061 31.893 18.2283 31.999 18.1033C32.105 17.9782 32.157 17.8162 32.1435 17.6529C32.13 17.4896 32.052 17.3383 31.9269 17.2324L16.3027 4.05593C16.1907 3.96024 16.0482 3.90765 15.9009 3.90765C15.7535 3.90765 15.611 3.96024 15.4991 4.05593L0.212847 17.1912C0.0882388 17.3004 0.012155 17.4546 0.00133428 17.6198C-0.00948644 17.7851 0.0458421 17.9479 0.155148 18.0724C0.264454 18.1969 0.418784 18.2729 0.584186 18.2837C0.749589 18.2945 0.912515 18.2392 1.03712 18.13L4.11992 15.4659V34.3823C4.11992 34.5462 4.18505 34.7033 4.30099 34.8191C4.41692 34.9349 4.57417 35 4.73813 35H23.2843C23.4483 35 23.6056 34.9349 23.7215 34.8191C23.8374 34.7033 23.9026 34.5462 23.9026 34.3823C23.9026 34.2185 23.8374 34.0614 23.7215 33.9456C23.6056 33.8298 23.4483 33.7647 23.2843 33.7647Z" fill="#007198"/>
<path d="M33.3818 26.9006C32.626 26.9076 31.8766 26.7609 31.1794 26.4692C30.4822 26.1775 29.8517 25.7471 29.3264 25.2041C28.3111 24.1695 27.7026 22.8043 27.6119 21.3583C27.6119 21.2759 27.6119 21.1977 27.6119 21.1153C27.61 21.0462 27.5961 20.9779 27.5707 20.9135C27.5482 20.7666 27.474 20.6324 27.3615 20.535C27.249 20.4377 27.1054 20.3836 26.9566 20.3824C26.7955 20.3867 26.6425 20.4536 26.5301 20.569C26.4177 20.6844 26.3548 20.839 26.3549 21C26.3549 21.1194 26.3549 21.2388 26.3549 21.3624C26.2477 24.3806 23.6018 26.8306 20.3335 26.8635H20.2635H20.1934C20.0294 26.8635 19.8722 26.9286 19.7563 27.0444C19.6403 27.1603 19.5752 27.3174 19.5752 27.4812C19.5752 27.645 19.6403 27.8021 19.7563 27.9179C19.8722 28.0338 20.0294 28.0988 20.1934 28.0988C21.779 28.1144 23.2965 28.745 24.4254 29.8576C25.5543 30.9701 26.2062 32.4774 26.2436 34.0612C26.2615 34.2427 26.3392 34.4132 26.4645 34.5458C26.5898 34.6785 26.7556 34.7658 26.936 34.7941C27.0999 34.7941 27.2572 34.729 27.3731 34.6132C27.4891 34.4974 27.5542 34.3403 27.5542 34.1765C27.5212 30.8824 30.0847 28.1729 33.2252 28.1359H33.3818C33.5458 28.1359 33.703 28.0708 33.819 27.955C33.9349 27.8392 34 27.6821 34 27.5182C34 27.3544 33.9349 27.1973 33.819 27.0815C33.703 26.9657 33.5458 26.9006 33.3818 26.9006ZM26.8824 31.2941C26.1464 29.6348 24.8266 28.303 23.1732 27.5512C24.8507 26.8787 26.2132 25.5997 26.9896 23.9688C27.3429 24.7492 27.8328 25.4603 28.4362 26.0688C29.0296 26.6705 29.7279 27.1589 30.4969 27.51C28.8558 28.2685 27.564 29.6209 26.8824 31.2941Z" fill="#007198"/>
<path d="M2.67766 5.08947H2.71888C3.58674 5.11037 4.41327 5.46413 5.02712 6.07743C5.64097 6.69072 5.99506 7.5165 6.01598 8.38358C6.02901 8.55697 6.10331 8.72009 6.22562 8.84379C6.34793 8.9675 6.51027 9.04373 6.68365 9.05887C6.76483 9.0578 6.84501 9.04075 6.91961 9.00872C6.9942 8.97668 7.06174 8.93028 7.11839 8.87216C7.17503 8.81404 7.21966 8.74534 7.24972 8.66999C7.27979 8.59463 7.2947 8.5141 7.29361 8.43299C7.26801 7.57976 7.58126 6.75105 8.165 6.12773C8.74873 5.50441 9.55555 5.13709 10.4094 5.10594H10.5083C10.6722 5.10594 10.8295 5.04086 10.9454 4.92503C11.0614 4.8092 11.1265 4.6521 11.1265 4.48829C11.1265 4.32448 11.0614 4.16738 10.9454 4.05155C10.8295 3.93572 10.6722 3.87064 10.5083 3.87064C10.0931 3.87761 9.68097 3.79851 9.29792 3.63834C8.91486 3.47817 8.5692 3.24041 8.28274 2.94006C7.72328 2.37075 7.38692 1.61973 7.33482 0.823591C7.33482 0.774179 7.33482 0.728885 7.33482 0.679473C7.33354 0.620744 7.32383 0.562502 7.30597 0.506532C7.28142 0.363326 7.20647 0.233595 7.09463 0.14073C6.98279 0.0478649 6.84142 -0.00202246 6.69601 6.28233e-05C6.61482 0.00113711 6.53465 0.018179 6.46005 0.0502153C6.38546 0.0822515 6.31791 0.128655 6.26127 0.186775C6.20463 0.244894 6.16 0.313593 6.12993 0.388946C6.09987 0.464299 6.08496 0.544832 6.08605 0.625944C6.08605 0.700062 6.08605 0.770061 6.08605 0.840061C6.02099 1.67113 5.64026 2.44588 5.02187 3.00552C4.40348 3.56516 3.59428 3.86731 2.76009 3.85006H2.66118C2.49722 3.85006 2.33997 3.91513 2.22404 4.03096C2.1081 4.14679 2.04297 4.30389 2.04297 4.4677C2.04297 4.63151 2.1081 4.78861 2.22404 4.90444C2.33997 5.02027 2.49722 5.08535 2.66118 5.08535L2.67766 5.08947ZM6.7125 2.90712C6.90093 3.23342 7.12937 3.53496 7.39252 3.80476C7.64649 4.06524 7.93164 4.29344 8.24153 4.48417C7.56883 4.898 7.01725 5.48174 6.64243 6.17652C6.43111 5.81279 6.17189 5.47903 5.87173 5.18417C5.61123 4.93303 5.32213 4.71329 5.01036 4.52947C5.71074 4.14774 6.29788 3.58811 6.7125 2.90712Z" fill="#007198"/>
<path d="M12.981 16.0588C12.817 16.0588 12.6598 16.1239 12.5439 16.2397C12.4279 16.3556 12.3628 16.5127 12.3628 16.6765V23.2647C12.3628 23.4285 12.4279 23.5856 12.5439 23.7014C12.6598 23.8173 12.817 23.8824 12.981 23.8824H19.5752C19.7392 23.8824 19.8964 23.8173 20.0124 23.7014C20.1283 23.5856 20.1934 23.4285 20.1934 23.2647V16.6765C20.1934 16.5127 20.1283 16.3556 20.0124 16.2397C19.8964 16.1239 19.7392 16.0588 19.5752 16.0588H12.981ZM18.957 22.6471H13.5992V17.2941H18.957V22.6471Z" fill="#007198"/>
</svg>
