<svg width="44" height="29" viewBox="0 0 44 29" fill="none" xmlns="http://www.w3.org/2000/svg">
<path d="M18.1268 12.3266C14.5072 12.3266 11.5627 15.2683 11.5627 18.8842C11.5627 22.5001 14.5072 25.4419 18.1268 25.4419C21.7444 25.4419 24.6879 22.5001 24.6879 18.8842C24.6875 15.2683 21.7444 12.3266 18.1268 12.3266ZM18.1268 24.0216C15.2908 24.0216 12.984 21.7171 12.984 18.8842C12.984 16.0518 15.2913 13.7468 18.1268 13.7468C20.9608 13.7468 23.2666 16.0514 23.2666 18.8842C23.2662 21.7171 20.9608 24.0216 18.1268 24.0216Z" fill="#007198"/>
<path d="M4.32222 12.3266C3.92947 12.3266 3.61157 12.6442 3.61157 13.0367V24.7318C3.61157 25.1242 3.92947 25.4419 4.32222 25.4419C4.71497 25.4419 5.03287 25.1242 5.03287 24.7318V13.0367C5.03287 12.6447 4.71497 12.3266 4.32222 12.3266Z" fill="#007198"/>
<path d="M31.706 12.3266C31.3133 12.3266 30.9954 12.6442 30.9954 13.0367V24.7318C30.9954 25.1242 31.3133 25.4419 31.706 25.4419C32.0988 25.4419 32.4167 25.1242 32.4167 24.7318V13.0367C32.4167 12.6447 32.0983 12.3266 31.706 12.3266Z" fill="#007198"/>
<path d="M43.2894 0H8.77555C8.3828 0 8.06491 0.317656 8.06491 0.710111V4.18871H4.9101C4.51735 4.18871 4.19946 4.50637 4.19946 4.89882V8.76751H0.710648C0.317896 8.76751 0 9.08517 0 9.47762V28.2899C0 28.6823 0.317896 29 0.710648 29H35.2244C35.6172 29 35.9351 28.6823 35.9351 28.2899V24.4212H39.4239C39.8167 24.4212 40.1346 24.1035 40.1346 23.7111V20.2306H43.2894C43.6821 20.2306 44 19.9129 44 19.5205V0.709638C44 0.31813 43.6816 0 43.2894 0ZM34.5138 27.5803H1.4213V10.1882H34.5138V27.5803ZM35.9351 23.0015V9.47809C35.9351 9.08564 35.6172 8.76798 35.2244 8.76798H5.62075V5.60941H38.7133V23.0015H35.9351ZM42.5787 18.8109H40.1346V4.89882C40.1346 4.50637 39.8167 4.18871 39.4239 4.18871H9.4862V1.42022H42.5787V18.8109Z" fill="#007198"/>
</svg>
