<svg width="28" height="19" viewBox="0 0 28 19" fill="none" xmlns="http://www.w3.org/2000/svg">
<path d="M27.6497 3.78425C27.3842 1.77882 26.1732 0.520923 24.0236 0.335119C21.5624 0.122429 16.2344 0 13.7631 0C8.70816 0 6.44918 0.118108 4.05872 0.354804C1.78068 0.579977 0.783438 1.54836 0.391468 3.54756C0.116939 4.94853 0 6.26068 0 9.36173C0 12.1473 0.137516 13.8993 0.350314 15.3732C0.642911 17.3974 2.09536 18.5348 4.22384 18.7042C6.70013 18.9016 11.6607 19 14.1134 19C16.4833 19 21.8168 18.8819 24.1882 18.6255C26.3107 18.396 27.32 17.3114 27.6497 15.3142C27.6497 15.3142 28 13.1263 28 9.34204C28 7.18729 27.8354 5.1833 27.6497 3.78425ZM11.0228 13.2646V5.56451L18.6871 9.37517L11.0228 13.2646Z" fill="#111111"/>
</svg>
